<svg width="560" height="25" viewBox="0 0 560 25" fill="none" xmlns="http://www.w3.org/2000/svg">
<path d="M560 10V25H0V10L10 0L20 10L30 0L40 10L50 0L60 10L70 0L80 10L90 0L100 10L110 0L120 10L130 0L140 10L150 0L160 10L170 0L180 10L190 0L200 10L210 0L220 10L230 0L240 10L250 0L260 10L270 0L280 10L290 0L300 10L310 0L320 10L330 0L340 10L350 0L360 10L370 0L380 10L390 0L400 10L410 0L420 10L430 0L440 10L450 0L460 10L470 0L480 10L490 0L500 10L510 0L520 10L530 0L540 10L550 0L560 10Z" fill="#BED2BE"/>
</svg>
