<svg width="1440" height="25" viewBox="0 0 1440 25" fill="none" xmlns="http://www.w3.org/2000/svg">
<path d="M1440 25H0V10L10 0L20 10L30 0L40 10L50 0L60 10L70 0L80 10L90 0L100 10L110 0L120 10L130 0L140 10L150 0L160 10L170 0L180 10L190 0L200 10L210 0L220 10L230 0L240 10L250 0L260 10L270 0L280 10L290 0L300 10L310 0L320 10L330 0L340 10L350 0L360 10L370 0L380 10L390 0L400 10L410 0L420 10L430 0L440 10L450 0L460 10L470 0L480 10L490 0L500 10L510 0L520 10L530 0L540 10L550 0L560 10L570 0L580 10L590 0L600 10L610 0L620 10L630 0L640 10L650 0L660 10L670 0L680 10L690 0L700 10L710 0L720 10L730 0L740 10L750 0L760 10L770 0L780 10L790 0L800 10L810 0L820 10L830 0L840 10L850 0L860 10L870 0L880 10L890 0L900 10L910 0L920 10L930 0L940 10L950 0L960 10L970 0L980 10L990 0L1000 10L1010 0L1020 10L1030 0L1040 10L1050 0L1060 10L1070 0L1080 10L1090 0L1100 10L1110 0L1120 10L1130 0L1140 10L1150 0L1160 10L1170 0L1180 10L1190 0L1200 10L1210 0L1220 10L1230 0L1240 10L1250 0L1260 10L1270 0L1280 10L1290 0L1300 10L1310 0L1320 10L1330 0L1340 10L1350 0L1360 10L1370 0L1380 10L1390 0L1400 10L1410 0L1420 10L1430 0L1440 10V25Z" fill="#BED2BE"/>
</svg>
