<svg width="26" height="32" viewBox="0 0 26 32" fill="none" xmlns="http://www.w3.org/2000/svg">
<path d="M23.9988 4.57201C22.2595 4.57044 20.5391 4.93195 18.9476 5.63339C16.7906 2.00929 13.245 0.205094 13.0822 0.120812C12.9234 0.0413642 12.7483 0 12.5708 0C12.3932 0 12.2182 0.0413642 12.0594 0.120812C11.8965 0.203665 8.34529 2.00929 6.19397 5.63339C4.60245 4.93195 2.88204 4.57044 1.1428 4.57201C0.83971 4.57201 0.549035 4.69242 0.334718 4.90673C0.120402 5.12105 0 5.41172 0 5.71481V11.4288C0.00377056 14.5638 1.17734 17.5845 3.29101 19.8998C5.40469 22.215 8.30632 23.6582 11.428 23.9467V29.0079L6.2254 26.4052C6.09108 26.338 5.94485 26.298 5.79506 26.2873C5.64526 26.2767 5.49484 26.2957 5.35238 26.3431C5.20991 26.3906 5.0782 26.4657 4.96475 26.5641C4.8513 26.6625 4.75835 26.7823 4.69119 26.9166C4.62403 27.0509 4.58399 27.1971 4.57334 27.3469C4.56269 27.4967 4.58166 27.6471 4.62915 27.7896C4.67663 27.9321 4.75172 28.0638 4.85011 28.1772C4.9485 28.2907 5.06827 28.3836 5.20259 28.4508L12.0594 31.8792C12.2182 31.9586 12.3932 32 12.5708 32C12.7483 32 12.9234 31.9586 13.0822 31.8792L19.939 28.4508C20.2102 28.3152 20.4165 28.0773 20.5124 27.7896C20.6083 27.5019 20.586 27.1879 20.4504 26.9166C20.3148 26.6453 20.0769 26.439 19.7892 26.3431C19.5015 26.2472 19.1874 26.2696 18.9162 26.4052L13.7136 29.0079V23.9467C16.8353 23.6582 19.7369 22.215 21.8506 19.8998C23.9642 17.5845 25.1378 14.5638 25.1416 11.4288V5.71481C25.1416 5.41172 25.0212 5.12105 24.8069 4.90673C24.5925 4.69242 24.3019 4.57201 23.9988 4.57201ZM11.428 21.6511C8.91482 21.367 6.59406 20.1681 4.90801 18.2829C3.22197 16.3977 2.28853 13.958 2.2856 11.4288V6.92047C4.79877 7.2046 7.11953 8.40352 8.80557 10.2887C10.4916 12.1739 11.4251 14.6136 11.428 17.1428V21.6511ZM12.5708 11.9088C11.6094 9.82013 10.096 8.0336 8.19387 6.7419C9.56094 4.4863 11.6223 3.04209 12.5708 2.45641C13.5207 3.03923 15.5821 4.48345 16.9477 6.7419C15.0458 8.03393 13.5325 9.82037 12.5708 11.9088ZM22.856 11.4288C22.853 13.958 21.9196 16.3977 20.2336 18.2829C18.5475 20.1681 16.2268 21.367 13.7136 21.6511V17.1428C13.7165 14.6136 14.65 12.1739 16.336 10.2887C18.022 8.40352 20.3428 7.2046 22.856 6.92047V11.4288Z" fill="#191A1E"/>
</svg>
