<svg width="25" height="25" viewBox="0 0 25 25" fill="none" xmlns="http://www.w3.org/2000/svg">
<path d="M23 21C24.1046 21 25 21.8954 25 23C25 24.1046 24.1046 25 23 25H2C0.895431 25 0 24.1046 0 23C0 21.8954 0.895431 21 2 21H23ZM23 10.5C24.1046 10.5 25 11.3954 25 12.5C25 13.6046 24.1046 14.5 23 14.5H2C0.895431 14.5 0 13.6046 0 12.5C0 11.3954 0.895431 10.5 2 10.5H23ZM23 0C24.1046 0 25 0.895431 25 2C25 3.10457 24.1046 4 23 4H2C0.895431 4 0 3.10457 0 2C0 0.895431 0.895431 0 2 0H23Z" fill="#191A1E"/>
</svg>
